# xmcd CD database file
#
# Track frame offsets:
#	150
#	25875
#	39932
#	60425
#	85750
#	102352
#	113301
#	137600
#	148056
#	164434
#	184238
#	202011
#	236511
#	251772
#	269576
#	292977
#
# Disc length: 4109 seconds
#
# Revision: 2
# Processed by: cddbd v1.4b41PL1 Copyright (c) Steve Scherf et al.
# Submitted via: Feurio! 1.50.2ß - http://www.feurio.com
#
DISCID=df100b10
DTITLE=Bode - Walking is Climbing CD2
DYEAR=1900
DGENRE=
TTITLE0=Alarm Clock
TTITLE1=Fat girls
TTITLE2=Precious
TTITLE3=Sad whistlin' and slow dancin'
TTITLE4=Sweet and blue
TTITLE5=Too shy to be a storm
TTITLE6=Nachts beiss' ich in's Bettuch
TTITLE7=What more
TTITLE8=Switch off- turn off fade out
TTITLE9=No more
TTITLE10=It shouldn't hurt so bad
TTITLE11=Somebody special - suicidal
TTITLE12=Der Zauberer bin ich
TTITLE13=I want somebody
TTITLE14=The driver, not the car
TTITLE15=I walk in the prison yard
EXTD=
EXTT0=
EXTT1=
EXTT2=
EXTT3=
EXTT4=
EXTT5=
EXTT6=
EXTT7=
EXTT8=
EXTT9=
EXTT10=
EXTT11=
EXTT12=
EXTT13=
EXTT14=
EXTT15=
PLAYORDER=
